<svg width="512" height="115" viewBox="0 0 135.47 30.36" xmlns="http://www.w3.org/2000/svg">
  <path d="M29.06 9.39q1.71-3.95 7.7-3.95h8.6l-1.64 3.99h-6.67l-5.7 14h-7.99zm11.92 10.1 4.08-10.1q1.7-3.95 7.7-3.95h9.85q2.52 0 3.7.73 1.22.7 1.02 2.12l-.08.53q-.04.24-.2.57l-4.08 10.1q-.81 2-2.76 2.97-1.96.98-4.93.98h-9.86q-5.17 0-4.72-2.9.08-.48.28-1.05zM55 19.45l4.07-10.02h-6.02l-4.07 10.02zM76.65 5.44h-7.86l3.42 9-10.75 9h7.86l4.88-4.08 1.55 4.08h7.7l-3.46-9 10.79-9h-7.7L78.23 9.5zm9.15 14.05 5.7-14.05h7.98l-5.7 14h4.63l-1.63 4h-6.54c-3.45 0-5.03-.97-4.73-2.9.06-.32.15-.67.29-1.05zm27.69-14.05-8.55 20.97a5.6 5.6 0 0 1-2.77 2.97c-1.3.65-2.95.98-4.93.98h-8.75l1.67-4H97l8.5-20.92zm21.98.04-3.26 7.98q-.2.53-3.74 1.67-3.5 1.14-10.51 2.2l-.86 2.11h12.63l-1.63 4h-20.6l3.3-8.07q.11-.28.85-.69.73-.4 2.36-.9 1.67-.52 4.36-1.14 2.68-.65 6.72-1.38l.73-1.83H113.2l1.62-3.95zM7.96 4 9.6 0h15.92c3.4 0 4.97.95 4.73 2.85-.06.38-.15.75-.29 1.1l-3.85 9.47c-1.14 2.63-3.7 3.95-7.7 3.95h-7.93l-2.49 6.07H0L7.38 5.35h7.98l-3.27 8.03h6.03l3.85-9.39z" aria-label="Proxyz"/>
</svg>

