<svg width="325" height="419" viewBox="0 0 325 419" fill="none" xmlns="http://www.w3.org/2000/svg">
<path d="M79.7571 125.995L80.2438 325.519C39.8523 327.466 29.1462 325.519 17.9534 300.7C8.99912 280.845 12.1136 198.992 12.1136 198.992C12.1136 198.992 12.8923 141.568 31.5794 129.888C50.2665 118.209 71.4842 122.426 79.7571 125.995Z" fill="#EE1B24" stroke="black" stroke-width="22" stroke-linejoin="round"/>
<path d="M238.202 27.4392C222.24 17.0639 149.3 0.11443 118.511 23.2057C90.7696 44.0118 82.7194 63.6158 76.9466 106.335C67.6139 175.397 65.2001 249.09 70.4981 327.678C76.4015 415.244 100.015 406.389 118.709 407.373C137.403 408.357 162 403.437 162.984 372.937C163.771 348.536 169.871 326.694 186.597 326.694H232.84C207.259 326.694 199.978 349.323 208.243 372.937C213.753 388.679 231.665 393.551 243.663 392.615C266.442 390.837 276.228 380.808 283.019 349.323C293.841 299.145 295.809 267.942 295.809 193.869C295.809 95.4795 253.596 37.4455 238.202 27.4392Z" fill="#EE1B24" stroke="black" stroke-width="22" stroke-linejoin="round"/>
<path d="M273.994 78.4739C249.654 72.5242 200.767 70.4743 176.768 76.6279C161.823 80.4599 150.308 85.3658 145.386 100.627C139.232 119.702 150.34 155.445 168.769 173.238C186.614 190.468 234.101 192.509 276.455 174.469C309.684 160.316 310.915 146.778 313.376 128.933C315.485 113.645 301.685 85.2428 273.994 78.4739Z" fill="#5CB5D1" stroke="black" stroke-width="22"/>
</svg>
